<?xml version="1.0" encoding="utf-8"?>
<!-- Generator: Adobe Illustrator 11.0, SVG Export Plug-In . SVG Version: 6.0.0 Build 78)  -->
<!DOCTYPE svg PUBLIC "-//W3C//DTD SVG 1.0//EN"    "http://www.w3.org/TR/2001/REC-SVG-20010904/DTD/svg10.dtd" [
	<!ENTITY ns_flows "http://ns.adobe.com/Flows/1.0/">
	<!ENTITY ns_svg "http://www.w3.org/2000/svg">
	<!ENTITY ns_xlink "http://www.w3.org/1999/xlink">
]>
<svg xmlns="&ns_svg;" xmlns:xlink="&ns_xlink;"
	 width="278.129" height="218.293" viewBox="0 0 278.129 218.293" overflow="visible"
	 xml:space="preserve">
		<g id="dojoLogo">
			<path d="M44.633,4.309C52.638,3.769,71.56,1.346,78.109,0c0,13.193-0.971,30.965-0.971,59.236l-0.242,67.582
				c0,21.81,0.242,32.043,0.971,44.156c0.242,4.851,1.454,5.656,4.608,5.926h6.792l-0.727,3.231
				c-9.704,0.807-23.772,2.155-33.233,4.307c0-4.307,0.244-11.308,0.244-15.075h-0.486c-6.307,8.072-14.797,14.805-24.016,14.805
				c-9.217,0-16.01-4.573-21.346-12.924C3.88,161.552,0,147.284,0,126.28c0-30.426,10.673-61.659,40.509-61.659
				c5.58,0,12.129,1.615,15.041,4.847c0-22.35,0.242-42.543-0.486-57.083C54.821,7.54,53.124,7,43.421,7.27L44.633,4.309z
				 M23.044,124.665c0,14.001,2.668,31.505,6.065,38.771c3.395,7.269,8.246,10.5,13.098,10.5c4.609,0,8.49-2.962,11.402-8.884
				c1.456-2.962,1.941-6.462,1.941-50.351c0-24.233-0.244-30.695-1.457-33.386c-1.456-4.309-4.366-12.926-12.128-12.926
				c-12.614,0-18.921,22.617-18.921,56.006V124.665z"/>
			<path d="M122.503,76.147c29.836,0,39.054,27.655,39.054,52.153c0,32.506-13.584,55.55-40.51,55.55
				c-30.08,0-40.267-27.654-40.267-53.365c0-27.897,12.128-54.337,41.48-54.337H122.503z M121.047,79.299
				c-6.065,0-8.976,4.367-11.644,10.19c-2.669,6.79-4.609,20.133-4.609,37.356c0,16.979,1.94,33.96,5.337,43.175
				c2.667,6.794,6.792,10.433,12.372,10.433c4.852,0,8.974-2.911,11.642-10.916c2.426-8.004,3.882-22.074,3.882-40.025
				c0-17.221-1.697-31.29-4.366-38.81c-2.426-6.792-5.821-11.402-12.372-11.402H121.047z"/>
			<path d="M157.431,75.246c10.43-0.67,24.5-1.788,34.202-3.349l0.485,0.669c-0.242,16.292-0.242,28.788-0.242,81.01
				c0,12.272-0.729,20.531-1.941,28.117c-1.697,8.26-5.58,16.517-10.431,21.65c-9.703,10.711-23.044,14.949-24.984,14.949
				s-3.396-0.668-4.366-1.559c-0.971-0.896-1.698-2.011-2.184-2.68l0.727-1.563c2.184,0.444,4.609,0.893,8.006,0.893
				c6.065,0,10.432-3.794,11.887-12.721c1.455-10.711,1.939-31.018,1.939-70.297c0-32.805-0.728-43.072-0.969-49.544
				c-0.243-2.454-1.214-3.124-4.609-3.124H158.4L157.431,75.246z"/>
			<path d="M179.262,41.833c7.278,0,11.158,4.24,11.158,11.158c0,6.472-5.095,10.713-11.644,10.713
				c-6.065,0-10.916-4.241-10.916-10.713c0-6.472,4.367-11.158,11.159-11.158H179.262z"/>
			<path d="M239.078,76.147c29.836,0,39.052,27.655,39.052,52.153c0,32.506-13.581,55.55-40.508,55.55
				c-30.078,0-40.268-27.654-40.268-53.365c0-27.897,12.13-54.337,41.481-54.337H239.078z M237.622,79.299
				c-6.065,0-8.976,4.367-11.643,10.19c-2.669,6.79-4.61,20.133-4.61,37.356c0,16.979,1.941,33.96,5.337,43.175
				c2.668,6.794,6.793,10.433,12.372,10.433c4.852,0,8.975-2.911,11.642-10.916c2.426-8.004,3.883-22.074,3.883-40.025
				c0-17.221-1.697-31.29-4.366-38.81c-2.428-6.792-5.821-11.402-12.371-11.402H237.622z"/>
			<g>
				<path d="M103.009,47.876h40.267l-1.213,12.116h-40.995L103.009,47.876z"/>
			</g>
		</g>
	</svg>
